<svg width="1728" height="1117" viewBox="0 0 1728 1117" fill="none" xmlns="http://www.w3.org/2000/svg">
<rect width="1728" height="1117" fill="#F0141E"/>
<g clip-path="url(#clip0_280_91)">
<path d="M609 219L1119 219V421H609V219Z" fill="#F0141E"/>
<path d="M1040.58 266.085V235.151H953.162L938.77 338.456L924.551 235.151H893.025L896.548 262.736C892.914 255.666 880.013 235.151 851.606 235.151C851.417 235.139 820.042 235.151 820.042 235.151L819.912 385.726L796.938 235.151L755.644 235.139L731.874 391.151L731.888 235.151H692.361L678.116 322.787L664.24 235.151H624.707V404.762H655.84V323.009L670.004 404.762H686.553L700.516 323.009V404.762H760.531L764.16 378.674H788.322L791.951 404.762L850.878 404.8H850.921V404.762H850.994V349.713L858.21 348.679L873.164 404.8H903.644L903.632 404.762H903.719L884.096 339.001C894.032 331.75 905.263 313.368 902.275 295.775V295.769C902.311 295.997 920.802 404.875 920.802 404.875L957.046 404.764L981.811 251.039V404.764H1040.58V374.263H1012.69V335.371H1040.58V304.405H1012.69V266.085H1040.58V266.085ZM767.827 351.785L776.382 279.265L785.246 351.785H767.827ZM858.309 318.298C855.919 319.432 853.43 320 850.994 320.006V265.456C851.032 265.456 851.089 265.45 851.15 265.45C853.578 265.432 871.757 266.171 871.757 292.426C871.757 306.16 865.576 314.822 858.309 318.298V318.298ZM1103.3 374.235V404.725H1045.96V235.127H1076.84V374.235H1103.3Z" fill="white"/>
</g>
<path d="M803.794 441.234H823.379C827.207 441.234 830.534 441.804 833.359 442.943C836.185 444.083 838.361 445.769 839.888 448.002C841.437 450.235 842.212 452.992 842.212 456.273C842.212 459.122 841.768 461.503 840.879 463.417C839.99 465.331 838.748 466.915 837.153 468.168C835.581 469.398 833.747 470.412 831.65 471.21L827.72 473.432H811.279L811.211 464.169H823.379C824.906 464.169 826.17 463.896 827.173 463.349C828.175 462.802 828.927 462.027 829.429 461.024C829.953 459.999 830.215 458.78 830.215 457.367C830.215 455.932 829.953 454.701 829.429 453.676C828.905 452.65 828.13 451.864 827.104 451.317C826.102 450.771 824.86 450.497 823.379 450.497H815.791V491H803.794V441.234ZM831.035 491L820.029 468.988L832.744 468.92L843.887 490.487V491H831.035ZM869.46 441.234H881.457V473.739C881.457 477.613 880.648 480.894 879.03 483.583C877.412 486.249 875.145 488.266 872.229 489.633C869.312 491 865.882 491.684 861.94 491.684C858.044 491.684 854.615 491 851.652 489.633C848.713 488.266 846.411 486.249 844.748 483.583C843.107 480.894 842.287 477.613 842.287 473.739V441.234H854.318V473.739C854.318 475.79 854.615 477.465 855.207 478.764C855.799 480.04 856.665 480.974 857.805 481.566C858.944 482.159 860.323 482.455 861.94 482.455C863.581 482.455 864.96 482.159 866.076 481.566C867.193 480.974 868.036 480.04 868.605 478.764C869.175 477.465 869.46 475.79 869.46 473.739V441.234ZM923.573 441.234V491H911.61L894.008 460.033V491H882.011V441.234H894.008L911.61 472.201V441.234H923.573Z" fill="white"/>
<defs>
<clipPath id="clip0_280_91">
<rect width="510" height="202" fill="white" transform="translate(609 219)"/>
</clipPath>
</defs>
</svg>
